<svg xmlns="http://www.w3.org/2000/svg" xmlns:xlink="http://www.w3.org/1999/xlink" width="100" zoomAndPan="magnify" viewBox="0 0 75 30.000001" height="40" preserveAspectRatio="xMidYMid meet" version="1.0"><defs><g/></defs><g fill="#ffffff" fill-opacity="0.302"><g transform="translate(3.078361, 17.292073)"><g><path d="M 2.328125 0 L 2.328125 -2.8125 L 3.65625 -2.8125 L 5.21875 0 L 6.71875 0 L 4.90625 -3.171875 C 5.289062 -3.359375 5.597656 -3.617188 5.828125 -3.953125 C 6.054688 -4.285156 6.171875 -4.675781 6.171875 -5.125 C 6.171875 -5.863281 5.894531 -6.425781 5.34375 -6.8125 C 4.800781 -7.195312 4.097656 -7.390625 3.234375 -7.390625 L 0.921875 -7.390625 L 0.921875 0 Z M 3.203125 -6.21875 C 4.179688 -6.21875 4.671875 -5.832031 4.671875 -5.0625 C 4.671875 -4.675781 4.535156 -4.394531 4.265625 -4.21875 C 4.003906 -4.039062 3.65625 -3.953125 3.21875 -3.953125 L 2.328125 -3.953125 L 2.328125 -6.21875 Z M 3.203125 -6.21875 "/></g></g></g><g fill="#ffffff" fill-opacity="0.302"><g transform="translate(9.901158, 17.292073)"><g><path d="M 1.515625 0 L 2.171875 -1.734375 L 4.984375 -1.734375 L 5.640625 0.109375 L 7.0625 -0.09375 L 4.1875 -7.390625 L 2.984375 -7.390625 L 0.109375 0 Z M 3.5625 -5.453125 L 4.546875 -2.875 L 2.59375 -2.875 Z M 3.5625 -5.453125 "/></g></g></g><g fill="#ffffff" fill-opacity="0.302"><g transform="translate(17.060756, 17.292073)"><g><path d="M 2.984375 0 L 4.171875 0 L 7.0625 -7.390625 L 5.640625 -7.390625 L 3.609375 -1.9375 L 1.515625 -7.5 L 0.109375 -7.3125 Z M 2.984375 0 "/></g></g></g><g fill="#ffffff" fill-opacity="0.302"><g transform="translate(24.220353, 17.292073)"><g><path d="M 0.921875 -7.390625 L 0.921875 0 L 2.328125 0 L 2.328125 -7.390625 Z M 0.921875 -7.390625 "/></g></g></g><g fill="#ffffff" fill-opacity="0.302"><g transform="translate(27.468784, 17.292073)"><g/></g></g><g fill="#ffffff" fill-opacity="0.302"><g transform="translate(29.913253, 17.292073)"><g><path d="M 2.984375 0 L 4.171875 0 L 7.0625 -7.390625 L 5.640625 -7.390625 L 3.609375 -1.9375 L 1.515625 -7.5 L 0.109375 -7.3125 Z M 2.984375 0 "/></g></g></g><g fill="#ffffff" fill-opacity="0.302"><g transform="translate(37.072851, 17.292073)"><g><path d="M 1.515625 0 L 2.171875 -1.734375 L 4.984375 -1.734375 L 5.640625 0.109375 L 7.0625 -0.09375 L 4.1875 -7.390625 L 2.984375 -7.390625 L 0.109375 0 Z M 3.5625 -5.453125 L 4.546875 -2.875 L 2.59375 -2.875 Z M 3.5625 -5.453125 "/></g></g></g><g fill="#ffffff" fill-opacity="0.302"><g transform="translate(44.232448, 17.292073)"><g><path d="M 2.328125 -7.390625 L 0.921875 -7.390625 L 0.921875 0 L 5.8125 0 L 5.59375 -1.09375 L 2.328125 -1.09375 Z M 2.328125 -7.390625 "/></g></g></g><g fill="#ffffff" fill-opacity="0.302"><g transform="translate(50.142649, 17.292073)"><g><path d="M 2.328125 -7.390625 L 0.921875 -7.390625 L 0.921875 0 L 5.8125 0 L 5.59375 -1.09375 L 2.328125 -1.09375 Z M 2.328125 -7.390625 "/></g></g></g><g fill="#ffffff" fill-opacity="0.302"><g transform="translate(56.052851, 17.292073)"><g><path d="M 0.828125 -2.6875 C 0.828125 -2.15625 0.945312 -1.675781 1.1875 -1.25 C 1.4375 -0.820312 1.789062 -0.484375 2.25 -0.234375 C 2.707031 0.00390625 3.238281 0.125 3.84375 0.125 C 4.445312 0.125 4.976562 0.00390625 5.4375 -0.234375 C 5.90625 -0.484375 6.265625 -0.816406 6.515625 -1.234375 C 6.773438 -1.660156 6.90625 -2.144531 6.90625 -2.6875 L 6.90625 -7.390625 L 5.484375 -7.390625 L 5.484375 -2.796875 C 5.484375 -2.222656 5.332031 -1.785156 5.03125 -1.484375 C 4.738281 -1.179688 4.347656 -1.03125 3.859375 -1.03125 C 3.367188 -1.03125 2.972656 -1.175781 2.671875 -1.46875 C 2.378906 -1.757812 2.234375 -2.203125 2.234375 -2.796875 L 2.234375 -7.390625 L 0.8125 -7.390625 Z M 0.828125 -2.6875 "/></g></g></g><g fill="#ffffff" fill-opacity="0.302"><g transform="translate(63.766527, 17.292073)"><g><path d="M 2.328125 0 L 2.328125 -2.8125 L 3.65625 -2.8125 L 5.21875 0 L 6.71875 0 L 4.90625 -3.171875 C 5.289062 -3.359375 5.597656 -3.617188 5.828125 -3.953125 C 6.054688 -4.285156 6.171875 -4.675781 6.171875 -5.125 C 6.171875 -5.863281 5.894531 -6.425781 5.34375 -6.8125 C 4.800781 -7.195312 4.097656 -7.390625 3.234375 -7.390625 L 0.921875 -7.390625 L 0.921875 0 Z M 3.203125 -6.21875 C 4.179688 -6.21875 4.671875 -5.832031 4.671875 -5.0625 C 4.671875 -4.675781 4.535156 -4.394531 4.265625 -4.21875 C 4.003906 -4.039062 3.65625 -3.953125 3.21875 -3.953125 L 2.328125 -3.953125 L 2.328125 -6.21875 Z M 3.203125 -6.21875 "/></g></g></g><g fill="#ffffff" fill-opacity="0.302"><g transform="translate(70.589324, 17.292073)"><g><path d="M 0.921875 -7.390625 L 0.921875 0 L 2.328125 0 L 2.328125 -7.390625 Z M 0.921875 -7.390625 "/></g></g></g><g fill="#ffffff" fill-opacity="0.502"><g transform="translate(2.597647, 16.81136)"><g><path d="M 2.328125 0 L 2.328125 -2.8125 L 3.65625 -2.8125 L 5.21875 0 L 6.71875 0 L 4.90625 -3.171875 C 5.289062 -3.359375 5.597656 -3.617188 5.828125 -3.953125 C 6.054688 -4.285156 6.171875 -4.675781 6.171875 -5.125 C 6.171875 -5.863281 5.894531 -6.425781 5.34375 -6.8125 C 4.800781 -7.195312 4.097656 -7.390625 3.234375 -7.390625 L 0.921875 -7.390625 L 0.921875 0 Z M 3.203125 -6.21875 C 4.179688 -6.21875 4.671875 -5.832031 4.671875 -5.0625 C 4.671875 -4.675781 4.535156 -4.394531 4.265625 -4.21875 C 4.003906 -4.039062 3.65625 -3.953125 3.21875 -3.953125 L 2.328125 -3.953125 L 2.328125 -6.21875 Z M 3.203125 -6.21875 "/></g></g></g><g fill="#ffffff" fill-opacity="0.502"><g transform="translate(9.420445, 16.81136)"><g><path d="M 1.515625 0 L 2.171875 -1.734375 L 4.984375 -1.734375 L 5.640625 0.109375 L 7.0625 -0.09375 L 4.1875 -7.390625 L 2.984375 -7.390625 L 0.109375 0 Z M 3.5625 -5.453125 L 4.546875 -2.875 L 2.59375 -2.875 Z M 3.5625 -5.453125 "/></g></g></g><g fill="#ffffff" fill-opacity="0.502"><g transform="translate(16.580042, 16.81136)"><g><path d="M 2.984375 0 L 4.171875 0 L 7.0625 -7.390625 L 5.640625 -7.390625 L 3.609375 -1.9375 L 1.515625 -7.5 L 0.109375 -7.3125 Z M 2.984375 0 "/></g></g></g><g fill="#ffffff" fill-opacity="0.502"><g transform="translate(23.73964, 16.81136)"><g><path d="M 0.921875 -7.390625 L 0.921875 0 L 2.328125 0 L 2.328125 -7.390625 Z M 0.921875 -7.390625 "/></g></g></g><g fill="#ffffff" fill-opacity="0.502"><g transform="translate(26.988071, 16.81136)"><g/></g></g><g fill="#ffffff" fill-opacity="0.502"><g transform="translate(29.43254, 16.81136)"><g><path d="M 2.984375 0 L 4.171875 0 L 7.0625 -7.390625 L 5.640625 -7.390625 L 3.609375 -1.9375 L 1.515625 -7.5 L 0.109375 -7.3125 Z M 2.984375 0 "/></g></g></g><g fill="#ffffff" fill-opacity="0.502"><g transform="translate(36.592137, 16.81136)"><g><path d="M 1.515625 0 L 2.171875 -1.734375 L 4.984375 -1.734375 L 5.640625 0.109375 L 7.0625 -0.09375 L 4.1875 -7.390625 L 2.984375 -7.390625 L 0.109375 0 Z M 3.5625 -5.453125 L 4.546875 -2.875 L 2.59375 -2.875 Z M 3.5625 -5.453125 "/></g></g></g><g fill="#ffffff" fill-opacity="0.502"><g transform="translate(43.751735, 16.81136)"><g><path d="M 2.328125 -7.390625 L 0.921875 -7.390625 L 0.921875 0 L 5.8125 0 L 5.59375 -1.09375 L 2.328125 -1.09375 Z M 2.328125 -7.390625 "/></g></g></g><g fill="#ffffff" fill-opacity="0.502"><g transform="translate(49.661936, 16.81136)"><g><path d="M 2.328125 -7.390625 L 0.921875 -7.390625 L 0.921875 0 L 5.8125 0 L 5.59375 -1.09375 L 2.328125 -1.09375 Z M 2.328125 -7.390625 "/></g></g></g><g fill="#ffffff" fill-opacity="0.502"><g transform="translate(55.572138, 16.81136)"><g><path d="M 0.828125 -2.6875 C 0.828125 -2.15625 0.945312 -1.675781 1.1875 -1.25 C 1.4375 -0.820312 1.789062 -0.484375 2.25 -0.234375 C 2.707031 0.00390625 3.238281 0.125 3.84375 0.125 C 4.445312 0.125 4.976562 0.00390625 5.4375 -0.234375 C 5.90625 -0.484375 6.265625 -0.816406 6.515625 -1.234375 C 6.773438 -1.660156 6.90625 -2.144531 6.90625 -2.6875 L 6.90625 -7.390625 L 5.484375 -7.390625 L 5.484375 -2.796875 C 5.484375 -2.222656 5.332031 -1.785156 5.03125 -1.484375 C 4.738281 -1.179688 4.347656 -1.03125 3.859375 -1.03125 C 3.367188 -1.03125 2.972656 -1.175781 2.671875 -1.46875 C 2.378906 -1.757812 2.234375 -2.203125 2.234375 -2.796875 L 2.234375 -7.390625 L 0.8125 -7.390625 Z M 0.828125 -2.6875 "/></g></g></g><g fill="#ffffff" fill-opacity="0.502"><g transform="translate(63.285813, 16.81136)"><g><path d="M 2.328125 0 L 2.328125 -2.8125 L 3.65625 -2.8125 L 5.21875 0 L 6.71875 0 L 4.90625 -3.171875 C 5.289062 -3.359375 5.597656 -3.617188 5.828125 -3.953125 C 6.054688 -4.285156 6.171875 -4.675781 6.171875 -5.125 C 6.171875 -5.863281 5.894531 -6.425781 5.34375 -6.8125 C 4.800781 -7.195312 4.097656 -7.390625 3.234375 -7.390625 L 0.921875 -7.390625 L 0.921875 0 Z M 3.203125 -6.21875 C 4.179688 -6.21875 4.671875 -5.832031 4.671875 -5.0625 C 4.671875 -4.675781 4.535156 -4.394531 4.265625 -4.21875 C 4.003906 -4.039062 3.65625 -3.953125 3.21875 -3.953125 L 2.328125 -3.953125 L 2.328125 -6.21875 Z M 3.203125 -6.21875 "/></g></g></g><g fill="#ffffff" fill-opacity="0.502"><g transform="translate(70.108611, 16.81136)"><g><path d="M 0.921875 -7.390625 L 0.921875 0 L 2.328125 0 L 2.328125 -7.390625 Z M 0.921875 -7.390625 "/></g></g></g><g fill="#ffffff" fill-opacity="1"><g transform="translate(2.116934, 16.330647)"><g><path d="M 2.328125 0 L 2.328125 -2.8125 L 3.65625 -2.8125 L 5.21875 0 L 6.71875 0 L 4.90625 -3.171875 C 5.289062 -3.359375 5.597656 -3.617188 5.828125 -3.953125 C 6.054688 -4.285156 6.171875 -4.675781 6.171875 -5.125 C 6.171875 -5.863281 5.894531 -6.425781 5.34375 -6.8125 C 4.800781 -7.195312 4.097656 -7.390625 3.234375 -7.390625 L 0.921875 -7.390625 L 0.921875 0 Z M 3.203125 -6.21875 C 4.179688 -6.21875 4.671875 -5.832031 4.671875 -5.0625 C 4.671875 -4.675781 4.535156 -4.394531 4.265625 -4.21875 C 4.003906 -4.039062 3.65625 -3.953125 3.21875 -3.953125 L 2.328125 -3.953125 L 2.328125 -6.21875 Z M 3.203125 -6.21875 "/></g></g></g><g fill="#ffffff" fill-opacity="1"><g transform="translate(8.939732, 16.330647)"><g><path d="M 1.515625 0 L 2.171875 -1.734375 L 4.984375 -1.734375 L 5.640625 0.109375 L 7.0625 -0.09375 L 4.1875 -7.390625 L 2.984375 -7.390625 L 0.109375 0 Z M 3.5625 -5.453125 L 4.546875 -2.875 L 2.59375 -2.875 Z M 3.5625 -5.453125 "/></g></g></g><g fill="#ffffff" fill-opacity="1"><g transform="translate(16.099329, 16.330647)"><g><path d="M 2.984375 0 L 4.171875 0 L 7.0625 -7.390625 L 5.640625 -7.390625 L 3.609375 -1.9375 L 1.515625 -7.5 L 0.109375 -7.3125 Z M 2.984375 0 "/></g></g></g><g fill="#ffffff" fill-opacity="1"><g transform="translate(23.258926, 16.330647)"><g><path d="M 0.921875 -7.390625 L 0.921875 0 L 2.328125 0 L 2.328125 -7.390625 Z M 0.921875 -7.390625 "/></g></g></g><g fill="#ffffff" fill-opacity="1"><g transform="translate(26.507358, 16.330647)"><g/></g></g><g fill="#ffffff" fill-opacity="1"><g transform="translate(28.951827, 16.330647)"><g><path d="M 2.984375 0 L 4.171875 0 L 7.0625 -7.390625 L 5.640625 -7.390625 L 3.609375 -1.9375 L 1.515625 -7.5 L 0.109375 -7.3125 Z M 2.984375 0 "/></g></g></g><g fill="#ffffff" fill-opacity="1"><g transform="translate(36.111424, 16.330647)"><g><path d="M 1.515625 0 L 2.171875 -1.734375 L 4.984375 -1.734375 L 5.640625 0.109375 L 7.0625 -0.09375 L 4.1875 -7.390625 L 2.984375 -7.390625 L 0.109375 0 Z M 3.5625 -5.453125 L 4.546875 -2.875 L 2.59375 -2.875 Z M 3.5625 -5.453125 "/></g></g></g><g fill="#ffffff" fill-opacity="1"><g transform="translate(43.271021, 16.330647)"><g><path d="M 2.328125 -7.390625 L 0.921875 -7.390625 L 0.921875 0 L 5.8125 0 L 5.59375 -1.09375 L 2.328125 -1.09375 Z M 2.328125 -7.390625 "/></g></g></g><g fill="#ffffff" fill-opacity="1"><g transform="translate(49.181223, 16.330647)"><g><path d="M 2.328125 -7.390625 L 0.921875 -7.390625 L 0.921875 0 L 5.8125 0 L 5.59375 -1.09375 L 2.328125 -1.09375 Z M 2.328125 -7.390625 "/></g></g></g><g fill="#ffffff" fill-opacity="1"><g transform="translate(55.091424, 16.330647)"><g><path d="M 0.828125 -2.6875 C 0.828125 -2.15625 0.945312 -1.675781 1.1875 -1.25 C 1.4375 -0.820312 1.789062 -0.484375 2.25 -0.234375 C 2.707031 0.00390625 3.238281 0.125 3.84375 0.125 C 4.445312 0.125 4.976562 0.00390625 5.4375 -0.234375 C 5.90625 -0.484375 6.265625 -0.816406 6.515625 -1.234375 C 6.773438 -1.660156 6.90625 -2.144531 6.90625 -2.6875 L 6.90625 -7.390625 L 5.484375 -7.390625 L 5.484375 -2.796875 C 5.484375 -2.222656 5.332031 -1.785156 5.03125 -1.484375 C 4.738281 -1.179688 4.347656 -1.03125 3.859375 -1.03125 C 3.367188 -1.03125 2.972656 -1.175781 2.671875 -1.46875 C 2.378906 -1.757812 2.234375 -2.203125 2.234375 -2.796875 L 2.234375 -7.390625 L 0.8125 -7.390625 Z M 0.828125 -2.6875 "/></g></g></g><g fill="#ffffff" fill-opacity="1"><g transform="translate(62.8051, 16.330647)"><g><path d="M 2.328125 0 L 2.328125 -2.8125 L 3.65625 -2.8125 L 5.21875 0 L 6.71875 0 L 4.90625 -3.171875 C 5.289062 -3.359375 5.597656 -3.617188 5.828125 -3.953125 C 6.054688 -4.285156 6.171875 -4.675781 6.171875 -5.125 C 6.171875 -5.863281 5.894531 -6.425781 5.34375 -6.8125 C 4.800781 -7.195312 4.097656 -7.390625 3.234375 -7.390625 L 0.921875 -7.390625 L 0.921875 0 Z M 3.203125 -6.21875 C 4.179688 -6.21875 4.671875 -5.832031 4.671875 -5.0625 C 4.671875 -4.675781 4.535156 -4.394531 4.265625 -4.21875 C 4.003906 -4.039062 3.65625 -3.953125 3.21875 -3.953125 L 2.328125 -3.953125 L 2.328125 -6.21875 Z M 3.203125 -6.21875 "/></g></g></g><g fill="#ffffff" fill-opacity="1"><g transform="translate(69.627898, 16.330647)"><g><path d="M 0.921875 -7.390625 L 0.921875 0 L 2.328125 0 L 2.328125 -7.390625 Z M 0.921875 -7.390625 "/></g></g></g></svg>