<?xml version="1.0" encoding="iso-8859-1"?>
<!-- Uploaded to: SVG Repo, www.svgrepo.com, Generator: SVG Repo Mixer Tools -->
<svg height="800px" width="800px" version="1.1" id="Layer_1" xmlns="http://www.w3.org/2000/svg" xmlns:xlink="http://www.w3.org/1999/xlink" 
	 viewBox="0 0 508 508" xml:space="preserve">
<path style="fill:#FFC52F;" d="M352.212,369.6c0.8,0.8,0.8,2,0,2.8c-0.4,0.4-0.8,0.4-1.2,0.4s-1.2-0.4-1.6-0.8l-5.6-5.6l-31.2,31.2
	c-0.8,0.8-2,0.8-2.8,0c-62.4-48.8-152.4-138.8-200.8-201.2c-0.8-0.8-0.4-2,0-2.8l30.8-30.8l-44.4-44.4c-0.8-0.8-0.8-2,0-2.8
	s2-0.8,2.8,0l45.6,45.6l13.2,13.2l43.2-43.2L75.012,6l-42.8,43.2l12.4,12.4l0,0l7.2,7.6c0.8,0.8,0.8,2,0,2.8
	c-0.4,0.4-0.8,0.4-1.6,0.4c-0.4,0-1.2,0-1.6-0.4l-6-6c-15.2,25.2-32.8,54.4-34,55.2c-5.2,5.2-6,12.8-2,18.8
	c83.2,131.2,227.6,275.6,358.8,358.8c6,3.6,14,2.8,18.8-2c0.8-0.8,29.6-18.8,54.4-34.4l-45.6-45.6c-0.8-0.8-0.8-2,0-2.8s2-0.8,2.8,0
	l47.6,47.6l0,0l12.4,12.4l43.2-43.2l-125.2-125.2l-43.2,43.2l12.4,12.4l0,0L352.212,369.6z"/>
<g>
	<path style="fill:#E8E3E3;" d="M109.412,34.8l62.8,62.8C170.212,63.6,143.012,36.4,109.412,34.8z"/>
	<path style="fill:#E8E3E3;" d="M408.612,334l62,62C468.612,362.8,441.812,336.4,408.612,334z"/>
</g>
<path d="M375.012,508c-4,0-8-1.2-11.2-3.2c-132-83.6-276.8-228.8-360.4-360.8c-5.2-8.4-4-19.2,2.8-26c2-3.2,20-32.8,32.8-53.6
	l-11.6-11.6c-1.6-1.6-1.6-4,0-5.6l46-46c1.6-1.6,4-1.6,5.6,0l128,128c1.6,1.6,1.6,4,0,5.6l-46,46c-1.6,1.6-4,1.6-5.6,0l-11.6-11.6
	l-27.2,27.2c48,60.8,134,146.8,194.8,195.2l27.2-27.2l-11.6-11.6c-0.8-0.8-1.2-1.6-1.2-2.8c0-1.2,0.4-2,1.2-2.8l46-46
	c1.6-1.6,4-1.6,5.6,0l128,128c1.6,1.6,1.6,4,0,5.6l-46,46c-1.6,1.6-4,1.6-5.6,0l-11.6-11.6c-20.8,13.2-50.4,31.6-53.2,33.6
	C385.812,506,380.212,508,375.012,508z M35.412,50l10.8,10.8c1.2,1.2,1.6,3.2,0.4,4.8c-34.4,56.4-34.8,57.2-35.6,57.6
	c-4.4,4.4-5.2,11.2-2,16.4c83.2,131.2,227.2,274.8,358,358c5.2,3.2,12,2.4,16.4-2c0.4-0.4,1.2-1.2,57.2-36c1.6-0.8,3.6-0.8,4.8,0.4
	l10.8,10.8l40-40l-122.4-122.4l-40,40l11.6,11.6c0.8,0.8,1.2,1.6,1.2,2.8s-0.4,2-1.2,2.8l-32.4,32.4c-1.6,1.6-3.6,1.6-5.2,0.4
	c-62.4-48.8-152.8-139.2-201.2-201.6c-1.2-1.6-1.2-4,0.4-5.2l32.4-32.4c1.6-1.6,4-1.6,5.6,0l11.6,11.6l40-40L74.212,8.4L35.412,50z"
	/>
<path d="M143.412,167.2c-1.2,0-2-0.4-2.8-1.2l-45.6-45.6c-1.6-1.6-1.6-4,0-5.6s4-1.6,5.6,0l45.6,45.6c1.6,1.6,1.6,4,0,5.6
	C145.412,166.8,144.212,167.2,143.412,167.2z"/>
<path d="M51.012,75.2c-1.2,0-2-0.4-2.8-1.2l-8.8-8.8c-1.6-1.6-1.6-4,0-5.6s4-1.6,5.6,0l8.8,8.8c1.6,1.6,1.6,4,0,5.6
	C53.412,74.8,52.212,75.2,51.012,75.2z"/>
<path d="M350.612,374.8c-1.2,0-2-0.4-2.8-1.2l-7.6-7.6c-1.6-1.6-1.6-4,0-5.6s4-1.6,5.6,0l7.6,7.6c1.6,1.6,1.6,4,0,5.6
	C353.012,374.4,351.812,374.8,350.612,374.8z"/>
<path d="M443.412,467.6c-1.2,0-2-0.4-2.8-1.2l-47.6-47.6c-1.6-1.6-1.6-4,0-5.6s4-1.6,5.6,0l47.6,47.6c1.6,1.6,1.6,4,0,5.6
	C445.412,467.2,444.612,467.6,443.412,467.6z"/>
<path d="M174.212,104.8c-2.4,0-4-1.6-4-4c0-35.6-28.8-64.4-64.4-64.4c-2.4,0-4-1.6-4-4s1.6-4,4-4c40,0,72.4,32.4,72.4,72.4
	C178.212,103.2,176.612,104.8,174.212,104.8z"/>
<path d="M473.012,404.4c-2.4,0-4-1.6-4-4c0-35.6-28.8-64.4-64.4-64.4c-2.4,0-4-1.6-4-4s1.6-4,4-4c40,0,72.4,32.4,72.4,72.4
	C477.012,402.4,475.012,404.4,473.012,404.4z"/>
<path d="M451.412,258c-2.4,0-4-1.6-4-4v-0.8c0-106.8-87.2-194-194.4-194c-2.4,0-4-1.6-4-4s1.6-4,4-4c111.6,0,202.4,90.4,202.4,202
	v0.8C455.412,256.4,453.812,258,451.412,258z"/>
<path d="M411.812,257.2c-2.4,0-4-1.6-4-4c0-85.2-69.2-154.4-154.4-154.4c-2.4,0-4-1.6-4-4s1.6-4,4-4c89.6,0,162.4,72.8,162.4,162.4
	C415.812,255.6,413.812,257.2,411.812,257.2z"/>
<path d="M372.612,257.2c-2.4,0-4-1.6-4-4c0-63.6-51.6-115.2-115.2-115.2c-2.4,0-4-1.6-4-4s1.6-4,4-4c68,0,123.2,55.2,123.2,123.2
	C376.612,255.6,374.612,257.2,372.612,257.2z"/>
<path d="M332.612,257.2c-2.4,0-4-1.6-4-4c0-41.6-33.6-75.2-75.2-75.2c-2.4,0-4-1.6-4-4s1.6-4,4-4c46,0,83.2,37.2,83.2,83.2
	C336.612,255.6,334.612,257.2,332.612,257.2z"/>
<path d="M292.612,257.2c-2.4,0-4-1.6-4-4c0-19.6-16-35.2-35.2-35.2c-2.4,0-4-1.6-4-4s1.6-4,4-4c24,0,43.2,19.6,43.2,43.2
	C296.612,255.6,295.012,257.2,292.612,257.2z"/>
</svg>